<svg width="48" height="34" fill="none" xmlns="http://www.w3.org/2000/svg"><path d="M46.586 1.848c-2.909-1.195-5.82-1.65-8.73-1.65-9.238 0-18.475 4.579-27.712 4.579-2.317 0-4.632-.288-6.949-1.008a2.614 2.614 0 00-.776-.119C1.128 3.65 0 4.628 0 5.986v23.3c0 .927.542 1.806 1.413 2.163 2.91 1.195 5.82 1.65 8.73 1.65 9.238 0 18.476-4.579 27.713-4.579 2.317 0 4.632.288 6.949 1.008.26.08.521.119.776.119 1.291 0 2.419-.978 2.419-2.336V4.012c0-.928-.543-1.806-1.414-2.164zM3.6 7.558c1.509.37 3.084.557 4.704.656C7.863 10.373 5.924 12 3.6 12V7.56zm0 20.93V24.98c2.578 0 4.663 2.002 4.778 4.509a18.45 18.45 0 01-4.778-1zm20.4-4.79c-3.315 0-6-3.156-6-7.05 0-3.893 2.686-7.05 6-7.05 3.313 0 6 3.157 6 7.05 0 3.895-2.688 7.05-6 7.05zm20.4 2.041c-1.315-.322-2.679-.503-4.075-.62.44-1.915 2.063-3.37 4.074-3.619v4.239zm0-17.34c-2.317-.287-4.115-2.18-4.186-4.52 1.465.16 2.856.458 4.185.93V8.4z" fill="#fff"/></svg>