<svg width="31" height="40" fill="none" xmlns="http://www.w3.org/2000/svg"><path d="M7.923 28.159c-.697-.656-.333-.471-2.015-.894-.762-.192-1.433-.562-2.04-1.004L.23 34.648c-.352.812.305 1.694 1.237 1.66l4.226-.15L8.6 39.042c.642.637 1.768.438 2.12-.374l4.175-9.622a6.11 6.11 0 01-2.832.723c-1.564 0-3.034-.573-4.14-1.611zm22.914 6.489l-3.64-8.387c-.605.443-1.276.812-2.039 1.004-1.69.425-1.32.24-2.015.893-1.106 1.04-2.576 1.612-4.14 1.612-.998 0-1.963-.268-2.832-.723l4.175 9.622c.352.812 1.479 1.01 2.12.374l2.907-2.886 4.226.152c.932.033 1.59-.85 1.238-1.661zm-9.609-8.196c1.226-1.172 1.366-1.071 3.111-1.518 1.114-.286 1.986-1.12 2.284-2.185.6-2.141.444-1.883 2.081-3.45a3 3 0 00.836-2.984c-.6-2.14-.6-1.84 0-3.983a3 3 0 00-.836-2.984c-1.637-1.567-1.481-1.309-2.081-3.45-.299-1.065-1.17-1.898-2.284-2.184-2.236-.574-1.966-.424-3.605-1.991a3.33 3.33 0 00-3.12-.8c-2.235.573-1.923.573-4.162 0a3.329 3.329 0 00-3.12.8C8.697 3.289 8.966 3.14 6.729 3.713 5.614 4 4.743 4.834 4.445 5.9 3.845 8.04 4 7.782 2.363 9.35a2.998 2.998 0 00-.835 2.983c.599 2.138.6 1.84 0 3.983a3.001 3.001 0 00.835 2.984C4 20.866 3.845 20.608 4.445 22.75c.298 1.066 1.17 1.9 2.283 2.185 1.795.46 1.93.387 3.11 1.518 1.062 1.016 2.715 1.197 3.99.44a3.332 3.332 0 011.706-.467c.604 0 1.195.162 1.705.466 1.275.759 2.928.577 3.99-.439zM7.967 14.084c0-3.998 3.388-7.239 7.566-7.239 4.18 0 7.567 3.241 7.567 7.24 0 3.998-3.388 7.239-7.567 7.239-4.178 0-7.566-3.241-7.566-7.24z" fill="#fff"/></svg>